<mxfile host="app.diagrams.net" agent="Mozilla/5.0 (X11; Ubuntu; Linux x86_64; rv:129.0) Gecko/20100101 Firefox/129.0" version="24.7.8">
  <diagram name="Page-1" id="EZSiDiUUW-A3F3POD66w">
    <mxGraphModel dx="1379" dy="797" grid="1" gridSize="10" guides="1" tooltips="1" connect="1" arrows="1" fold="1" page="1" pageScale="1" pageWidth="850" pageHeight="1100" math="0" shadow="0">
      <root>
        <mxCell id="0" />
        <mxCell id="1" parent="0" />
        <mxCell id="YwIDt_8FfxX6Np0XqLLu-5" value="&lt;div align=&quot;left&quot; style=&quot;font-size: 9px;&quot;&gt;&lt;font face=&quot;Garamond&quot; style=&quot;font-size: 9px;&quot;&gt;&lt;font face=&quot;Courier New&quot; style=&quot;font-size: 9px;&quot;&gt;&lt;font color=&quot;#00ff00&quot; style=&quot;font-size: 9px;&quot;&gt;&amp;lt;bos&amp;gt;&amp;lt;start_of_turn&amp;gt;user&lt;/font&gt;&lt;br style=&quot;font-size: 9px;&quot;&gt;&lt;/font&gt;&lt;/font&gt;&lt;font style=&quot;font-size: 9px;&quot; face=&quot;Lucida Console&quot;&gt;&lt;font style=&quot;font-size: 9px;&quot;&gt;&lt;i style=&quot;font-size: 9px;&quot;&gt;&lt;font color=&quot;#ff0080&quot; style=&quot;font-size: 9px;&quot;&gt;Select the most appropriate context span which answers the given question without any explanation&lt;/font&gt;.&amp;nbsp;&lt;/i&gt;&lt;/font&gt;&lt;/font&gt;&lt;/div&gt;&lt;div align=&quot;left&quot; style=&quot;font-size: 9px;&quot;&gt;&lt;font style=&quot;font-size: 9px;&quot; face=&quot;Lucida Console&quot;&gt;&lt;font style=&quot;font-size: 9px;&quot;&gt;&lt;i style=&quot;font-size: 9px;&quot;&gt;&lt;font color=&quot;#cc6600&quot; style=&quot;font-size: 9px;&quot;&gt;Context: Beyoncé Giselle Knowles-Carter (/biːˈjɒnseɪ/ bee-YON-say) (born September 4, 1981) is an American singer, songwriter, record producer and actress. Born and raised in Houston, Texas, she performed in various singing and dancing competitions as a child, and rose to fame in the late 1990s as lead singer of R&amp;amp;B girl-group Destiny&#39;s Child. Managed by her father, Mathew Knowles, the group became one of the world&#39;s best-selling girl groups of all time. Their hiatus saw the release of Beyoncé&#39;s debut album, Dangerously in Love (2003), which established her as a solo artist worldwide, earned five Grammy Awards and featured the Billboard Hot 100 number-one singles &quot;Crazy in Love&quot; and &quot;Baby Boy&quot;.&lt;/font&gt;&lt;br style=&quot;font-size: 9px;&quot;&gt;&lt;br style=&quot;font-size: 9px;&quot;&gt;&lt;font color=&quot;#0000ff&quot; style=&quot;font-size: 9px;&quot;&gt;Question: When did Beyonce start becoming popular?&lt;/font&gt;&lt;/i&gt;&lt;/font&gt;&lt;/font&gt;&lt;font face=&quot;Garamond&quot; style=&quot;font-size: 9px;&quot;&gt;&lt;font face=&quot;Courier New&quot; style=&quot;font-size: 9px;&quot;&gt;&lt;font color=&quot;#00ff00&quot; style=&quot;font-size: 9px;&quot;&gt;&lt;br&gt;&lt;/font&gt;&lt;/font&gt;&lt;/font&gt;&lt;/div&gt;&lt;div align=&quot;left&quot; style=&quot;font-size: 9px;&quot;&gt;&lt;font face=&quot;Garamond&quot; style=&quot;font-size: 9px;&quot;&gt;&lt;font face=&quot;Courier New&quot; style=&quot;font-size: 9px;&quot;&gt;&lt;font color=&quot;#00ff00&quot; style=&quot;font-size: 9px;&quot;&gt;&amp;lt;end_of_turn&amp;gt;&lt;/font&gt;&lt;br style=&quot;font-size: 9px;&quot;&gt;&lt;/font&gt;&lt;/font&gt;&lt;font face=&quot;Garamond&quot; style=&quot;font-size: 9px;&quot;&gt;&lt;font face=&quot;Courier New&quot; style=&quot;font-size: 9px;&quot;&gt;&lt;font color=&quot;#00ff00&quot; style=&quot;font-size: 9px;&quot;&gt;&amp;lt;start_of_turn&amp;gt;model&lt;/font&gt;&lt;/font&gt;&lt;/font&gt;&lt;br style=&quot;font-size: 9px;&quot;&gt;&lt;font style=&quot;font-size: 9px;&quot; face=&quot;Lucida Console&quot; color=&quot;#00cccc&quot;&gt;&lt;font style=&quot;font-size: 9px;&quot;&gt;&lt;i style=&quot;font-size: 9px;&quot;&gt;The answer is: in the late 1990s as lead singer of R&amp;amp;B girl-group Destiny&#39;s Child.&lt;/i&gt;&lt;/font&gt;&lt;/font&gt;&lt;/div&gt;&lt;div align=&quot;left&quot; style=&quot;font-size: 9px;&quot;&gt;&lt;font face=&quot;Garamond&quot; style=&quot;font-size: 9px;&quot;&gt;&lt;font face=&quot;Courier New&quot; style=&quot;font-size: 9px;&quot;&gt;&lt;font color=&quot;#00ff00&quot; style=&quot;font-size: 9px;&quot;&gt;&amp;lt;end_of_turn&amp;gt;&lt;/font&gt;&lt;/font&gt;&lt;/font&gt;&lt;font face=&quot;Garamond&quot; style=&quot;font-size: 9px;&quot;&gt;&lt;font face=&quot;Courier New&quot; style=&quot;font-size: 9px;&quot;&gt;&lt;font color=&quot;#00ff00&quot; style=&quot;font-size: 9px;&quot;&gt;&lt;br&gt;&lt;/font&gt;&lt;/font&gt;&lt;/font&gt;&lt;/div&gt;&lt;div align=&quot;left&quot; style=&quot;font-size: 9px;&quot;&gt;&lt;font face=&quot;Garamond&quot; style=&quot;font-size: 9px;&quot;&gt;&lt;font face=&quot;Courier New&quot; style=&quot;font-size: 9px;&quot;&gt;&lt;font color=&quot;#00ff00&quot; style=&quot;font-size: 9px;&quot;&gt;&amp;lt;eos&amp;gt;&lt;/font&gt;&lt;br style=&quot;font-size: 9px;&quot;&gt;------------------------------------------------------------------------------------------------------------------------------------------------------------&lt;br style=&quot;font-size: 9px;&quot;&gt;&lt;/font&gt;&lt;/font&gt;&lt;font face=&quot;Garamond&quot; style=&quot;font-size: 9px;&quot;&gt;&lt;font face=&quot;Courier New&quot; style=&quot;font-size: 9px;&quot;&gt;&lt;font color=&quot;#00ff00&quot; style=&quot;font-size: 9px;&quot;&gt;&amp;lt;bos&amp;gt;&amp;lt;start_of_turn&amp;gt;user&lt;/font&gt;&lt;/font&gt;&lt;/font&gt;&lt;br style=&quot;font-size: 9px;&quot;&gt;&lt;font style=&quot;font-size: 9px;&quot; face=&quot;Lucida Console&quot;&gt;&lt;font style=&quot;font-size: 9px;&quot;&gt;&lt;i style=&quot;font-size: 9px;&quot;&gt;&lt;font color=&quot;#ff0080&quot; style=&quot;font-size: 9px;&quot;&gt;Select the most appropriate context span which answers the given question without any explanation&lt;/font&gt;.&lt;/i&gt;&lt;/font&gt;&lt;/font&gt;&lt;font style=&quot;font-size: 9px;&quot; face=&quot;Lucida Console&quot;&gt;&lt;font style=&quot;font-size: 9px;&quot;&gt;&lt;i style=&quot;font-size: 9px;&quot;&gt; &lt;br style=&quot;font-size: 9px;&quot;&gt;&lt;font color=&quot;#cc6600&quot; style=&quot;font-size: 9px;&quot;&gt;Context: Beyoncé Giselle Knowles-Carter (/biːˈjɒnseɪ/ bee-YON-say) (born September 4, 1981) is an American singer, songwriter, record producer and actress. Born and raised in Houston, Texas, she performed in various singing and dancing competitions as a child, and rose to fame in the late 1990s as lead singer of R&amp;amp;B girl-group Destiny&#39;s Child. Managed by her father, Mathew Knowles, the group became one of the world&#39;s best-selling girl groups of all time. Their hiatus saw the release of Beyoncé&#39;s debut album, Dangerously in Love (2003), which established her as a solo artist worldwide, earned five Grammy Awards and featured the Billboard Hot 100 number-one singles &quot;Crazy in Love&quot; and &quot;Baby Boy&quot;.&lt;/font&gt;&lt;br style=&quot;font-size: 9px;&quot;&gt;&lt;br style=&quot;font-size: 9px;&quot;&gt;&lt;font color=&quot;#0000ff&quot; style=&quot;font-size: 9px;&quot;&gt;Question: What areas did Beyonce compete in when she was growing up?&lt;/font&gt;&lt;/i&gt;&lt;/font&gt;&lt;/font&gt;&lt;font face=&quot;Garamond&quot; style=&quot;font-size: 9px;&quot;&gt;&lt;font face=&quot;Courier New&quot; style=&quot;font-size: 9px;&quot;&gt;&lt;font color=&quot;#00ff00&quot; style=&quot;font-size: 9px;&quot;&gt;&lt;br&gt;&lt;/font&gt;&lt;/font&gt;&lt;/font&gt;&lt;/div&gt;&lt;div align=&quot;left&quot; style=&quot;font-size: 9px;&quot;&gt;&lt;font face=&quot;Garamond&quot; style=&quot;font-size: 9px;&quot;&gt;&lt;font face=&quot;Courier New&quot; style=&quot;font-size: 9px;&quot;&gt;&lt;font color=&quot;#00ff00&quot; style=&quot;font-size: 9px;&quot;&gt;&amp;lt;end_of_turn&amp;gt;&lt;/font&gt;&lt;/font&gt;&lt;/font&gt;&lt;br style=&quot;font-size: 9px;&quot;&gt;&lt;font face=&quot;Garamond&quot; style=&quot;font-size: 9px;&quot;&gt;&lt;font face=&quot;Courier New&quot; style=&quot;font-size: 9px;&quot;&gt;&lt;font color=&quot;#00ff00&quot; style=&quot;font-size: 9px;&quot;&gt;&amp;lt;start_of_turn&amp;gt;model&lt;/font&gt;&lt;br style=&quot;font-size: 9px;&quot;&gt;&lt;/font&gt;&lt;/font&gt;&lt;font style=&quot;font-size: 9px;&quot; face=&quot;Lucida Console&quot; color=&quot;#00cccc&quot;&gt;&lt;font style=&quot;font-size: 9px;&quot;&gt;&lt;i style=&quot;font-size: 9px;&quot;&gt;The most appropriate context span for this question is:&lt;br style=&quot;font-size: 9px;&quot;&gt;&lt;br style=&quot;font-size: 9px;&quot;&gt;**Context:** Beyoncé Giselle Knowles-Carter (born September 4, 1981) is an American singer, songwriter, record producer and actress. Born and raised in Houston, Texas, she **performed in various singing and dancing competitions** as a child, and rose to fame in the late 1990s as lead singer of R&amp;amp;B girl-group Destiny&#39;s Child.&lt;br style=&quot;font-size: 9px;&quot;&gt;&lt;br style=&quot;font-size: 9px;&quot;&gt;This context span answers the question of &quot;what areas did Beyonce compete in when she was growing up&quot; by mentioning &quot;singing and dancing competitions.&quot;&lt;/i&gt;&lt;/font&gt;&lt;/font&gt;&lt;font face=&quot;Garamond&quot; style=&quot;font-size: 9px;&quot;&gt;&lt;font face=&quot;Courier New&quot; style=&quot;font-size: 9px;&quot;&gt;&lt;font color=&quot;#00ff00&quot; style=&quot;font-size: 9px;&quot;&gt;&lt;br&gt;&lt;/font&gt;&lt;/font&gt;&lt;/font&gt;&lt;/div&gt;&lt;div align=&quot;left&quot; style=&quot;font-size: 9px;&quot;&gt;&lt;font face=&quot;Garamond&quot; style=&quot;font-size: 9px;&quot;&gt;&lt;font face=&quot;Courier New&quot; style=&quot;font-size: 9px;&quot;&gt;&lt;font color=&quot;#00ff00&quot; style=&quot;font-size: 9px;&quot;&gt;&amp;lt;end_of_turn&amp;gt;&lt;/font&gt;&lt;/font&gt;&lt;/font&gt;&lt;font face=&quot;Garamond&quot; style=&quot;font-size: 9px;&quot;&gt;&lt;font face=&quot;Courier New&quot; style=&quot;font-size: 9px;&quot;&gt;&lt;font color=&quot;#00ff00&quot; style=&quot;font-size: 9px;&quot;&gt;&lt;br&gt;&lt;/font&gt;&lt;/font&gt;&lt;/font&gt;&lt;/div&gt;&lt;div align=&quot;left&quot; style=&quot;font-size: 9px;&quot;&gt;&lt;font face=&quot;Garamond&quot; style=&quot;font-size: 9px;&quot;&gt;&lt;font face=&quot;Courier New&quot; style=&quot;font-size: 9px;&quot;&gt;&lt;font color=&quot;#00ff00&quot; style=&quot;font-size: 9px;&quot;&gt;&amp;lt;eos&amp;gt;&lt;/font&gt;&lt;/font&gt;&lt;/font&gt;&lt;font face=&quot;Garamond&quot; style=&quot;font-size: 9px;&quot;&gt;&lt;font face=&quot;Courier New&quot; style=&quot;font-size: 9px;&quot;&gt;&lt;br style=&quot;font-size: 9px;&quot;&gt;------------------------------------------------------------------------------------------------------------------------------------------------------------&lt;br style=&quot;font-size: 9px;&quot;&gt;&lt;/font&gt;&lt;/font&gt;&lt;font face=&quot;Garamond&quot; style=&quot;font-size: 9px;&quot;&gt;&lt;font face=&quot;Courier New&quot; style=&quot;font-size: 9px;&quot;&gt;&lt;font color=&quot;#00ff00&quot; style=&quot;font-size: 9px;&quot;&gt;&amp;lt;bos&amp;gt;&amp;lt;start_of_turn&amp;gt;user&lt;/font&gt;&lt;/font&gt;&lt;/font&gt;&lt;br style=&quot;font-size: 9px;&quot;&gt;&lt;font style=&quot;font-size: 9px;&quot; face=&quot;Lucida Console&quot;&gt;&lt;font style=&quot;font-size: 9px;&quot;&gt;&lt;i style=&quot;font-size: 9px;&quot;&gt;&lt;font color=&quot;#ff0080&quot; style=&quot;font-size: 9px;&quot;&gt;Select the most appropriate context span which answers the given question without any explanation&lt;/font&gt;.&lt;/i&gt;&lt;/font&gt;&lt;/font&gt;&lt;font style=&quot;font-size: 9px;&quot; face=&quot;Lucida Console&quot;&gt;&lt;font style=&quot;font-size: 9px;&quot;&gt;&lt;i style=&quot;font-size: 9px;&quot;&gt;&amp;nbsp;&lt;/i&gt;&lt;/font&gt;&lt;/font&gt;&lt;/div&gt;&lt;div align=&quot;left&quot; style=&quot;font-size: 9px;&quot;&gt;&lt;font style=&quot;font-size: 9px;&quot; face=&quot;Lucida Console&quot;&gt;&lt;font style=&quot;font-size: 9px;&quot;&gt;&lt;i style=&quot;font-size: 9px;&quot;&gt;&lt;font color=&quot;#cc6600&quot; style=&quot;font-size: 9px;&quot;&gt;Context: Beyoncé Giselle Knowles-Carter (/biːˈjɒnseɪ/ bee-YON-say) (born September 4, 1981) is an American singer, songwriter, record producer and actress. Born and raised in Houston, Texas, she performed in various singing and dancing competitions as a child, and rose to fame in the late 1990s as lead singer of R&amp;amp;B girl-group Destiny&#39;s Child. Managed by her father, Mathew Knowles, the group became one of the world&#39;s best-selling girl groups of all time. Their hiatus saw the release of Beyoncé&#39;s debut album, Dangerously in Love (2003), which established her as a solo artist worldwide, earned five Grammy Awards and featured the Billboard Hot 100 number-one singles &quot;Crazy in Love&quot; and &quot;Baby Boy&quot;.&lt;/font&gt;&lt;br style=&quot;font-size: 9px;&quot;&gt;&lt;br style=&quot;font-size: 9px;&quot;&gt;&lt;font color=&quot;#0000cc&quot; style=&quot;font-size: 9px;&quot;&gt;Question: When did Beyonce leave Destiny&#39;s Child and become a solo singer?&lt;/font&gt;&lt;/i&gt;&lt;/font&gt;&lt;/font&gt;&lt;font face=&quot;Garamond&quot; style=&quot;font-size: 9px;&quot;&gt;&lt;font face=&quot;Courier New&quot; style=&quot;font-size: 9px;&quot;&gt;&lt;font color=&quot;#00ff00&quot; style=&quot;font-size: 9px;&quot;&gt;&lt;br&gt;&lt;/font&gt;&lt;/font&gt;&lt;/font&gt;&lt;/div&gt;&lt;div align=&quot;left&quot; style=&quot;font-size: 9px;&quot;&gt;&lt;font face=&quot;Garamond&quot; style=&quot;font-size: 9px;&quot;&gt;&lt;font face=&quot;Courier New&quot; style=&quot;font-size: 9px;&quot;&gt;&lt;font color=&quot;#00ff00&quot; style=&quot;font-size: 9px;&quot;&gt;&amp;lt;end_of_turn&amp;gt;&lt;/font&gt;&lt;/font&gt;&lt;/font&gt;&lt;br style=&quot;font-size: 9px;&quot;&gt;&lt;font face=&quot;Garamond&quot; style=&quot;font-size: 9px;&quot;&gt;&lt;font face=&quot;Courier New&quot; style=&quot;font-size: 9px;&quot;&gt;&lt;font color=&quot;#00ff00&quot; style=&quot;font-size: 9px;&quot;&gt;&amp;lt;start_of_turn&amp;gt;model&lt;/font&gt;&lt;/font&gt;&lt;/font&gt;&lt;br style=&quot;font-size: 9px;&quot;&gt;&lt;font style=&quot;font-size: 9px;&quot; face=&quot;Lucida Console&quot; color=&quot;#00cccc&quot;&gt;&lt;font style=&quot;font-size: 9px;&quot;&gt;&lt;i style=&quot;font-size: 9px;&quot;&gt;The text states that Beyoncé left Destiny&#39;s Child and became a solo singer in the late 1990s. Therefore, the most appropriate context span is &quot;the late 1990s.&quot;&lt;/i&gt;&lt;/font&gt;&lt;/font&gt;&lt;font face=&quot;Garamond&quot; style=&quot;font-size: 9px;&quot;&gt;&lt;font face=&quot;Courier New&quot; style=&quot;font-size: 9px;&quot;&gt;&lt;font color=&quot;#00ff00&quot; style=&quot;font-size: 9px;&quot;&gt;&lt;br&gt;&lt;/font&gt;&lt;/font&gt;&lt;/font&gt;&lt;/div&gt;&lt;div align=&quot;left&quot; style=&quot;font-size: 9px;&quot;&gt;&lt;font face=&quot;Garamond&quot; style=&quot;font-size: 9px;&quot;&gt;&lt;font face=&quot;Courier New&quot; style=&quot;font-size: 9px;&quot;&gt;&lt;font color=&quot;#00ff00&quot; style=&quot;font-size: 9px;&quot;&gt;&amp;lt;end_of_turn&amp;gt;&lt;/font&gt;&lt;/font&gt;&lt;/font&gt;&lt;font face=&quot;Garamond&quot; style=&quot;font-size: 9px;&quot;&gt;&lt;font face=&quot;Courier New&quot; style=&quot;font-size: 9px;&quot;&gt;&lt;font color=&quot;#00ff00&quot; style=&quot;font-size: 9px;&quot;&gt;&lt;br&gt;&lt;/font&gt;&lt;/font&gt;&lt;/font&gt;&lt;/div&gt;&lt;div align=&quot;left&quot; style=&quot;font-size: 9px;&quot;&gt;&lt;font face=&quot;Garamond&quot; style=&quot;font-size: 9px;&quot;&gt;&lt;font face=&quot;Courier New&quot; style=&quot;font-size: 9px;&quot;&gt;&lt;font color=&quot;#00ff00&quot; style=&quot;font-size: 9px;&quot;&gt;&amp;lt;eos&amp;gt;&lt;/font&gt;&lt;/font&gt;&lt;/font&gt;&lt;/div&gt;" style="rounded=0.5;whiteSpace=wrap;html=1;align=left;fontSize=9;" vertex="1" parent="1">
          <mxGeometry x="50" y="350" width="850" height="560" as="geometry" />
        </mxCell>
      </root>
    </mxGraphModel>
  </diagram>
</mxfile>
